<?xml version="1.0" standalone="no"?>
<!DOCTYPE svg PUBLIC "-//W3C//DTD SVG 20010904//EN"
 "http://www.w3.org/TR/2001/REC-SVG-20010904/DTD/svg10.dtd">
<svg version="1.0" xmlns="http://www.w3.org/2000/svg"
 width="100.000000pt" height="41.000000pt" viewBox="0 0 100.000000 41.000000"
 preserveAspectRatio="xMidYMid meet">

<g transform="translate(0.000000,41.000000) scale(0.100000,-0.100000)"
fill="#000000" stroke="none">
<path d="M70 405 c0 -2 5 -16 12 -30 10 -23 17 -25 69 -25 l57 0 -11 30 c-11
29 -14 30 -69 30 -32 0 -58 -2 -58 -5z"/>
<path d="M95 300 c-53 -27 -77 -63 -83 -120 -6 -66 24 -121 81 -149 55 -27 82
-26 137 2 53 27 59 39 25 61 -23 15 -27 15 -56 0 -17 -9 -41 -13 -54 -10 -25
6 -55 32 -55 47 0 5 47 9 105 9 l105 0 0 33 c0 107 -111 176 -205 127z m98
-61 c22 -12 37 -28 37 -41 0 -5 -31 -8 -70 -8 -76 0 -91 14 -48 44 27 19 51
20 81 5z"/>
<path d="M547 258 l-45 -53 -51 49 -51 50 -25 -24 -25 -24 45 -46 c25 -25 45
-50 45 -55 0 -5 -20 -30 -45 -55 l-45 -46 25 -24 25 -24 51 50 51 49 48 -52
48 -52 26 28 26 27 -50 49 -50 49 50 51 50 51 -28 27 -29 28 -46 -53z"/>
<path d="M800 299 c-87 -36 -125 -138 -81 -219 25 -47 93 -83 144 -77 35 5
107 44 107 58 0 4 -11 14 -25 23 -23 15 -28 15 -56 0 -17 -9 -41 -13 -54 -10
-25 6 -55 32 -55 47 0 5 47 9 105 9 l105 0 0 33 c0 41 -28 95 -61 120 -31 22
-95 31 -129 16z m84 -70 c23 -11 42 -37 32 -46 -2 -2 -37 -3 -77 -1 l-74 3 27
28 c29 29 53 33 92 16z"/>
</g>
</svg>
