<svg width="51" height="35" fill="none" xmlns="http://www.w3.org/2000/svg">
  <path d="M11.567 33.502v-2.18a1.28 1.28 0 00-.375-1 1.31 1.31 0 00-1.007-.381 1.373 1.373 0 00-1.235.617 1.302 1.302 0 00-1.162-.618 1.173 1.173 0 00-1.03.517v-.43h-.764v3.475h.772V31.59a.805.805 0 01.21-.661.823.823 0 01.65-.262c.508 0 .765.327.765.916v1.933h.772V31.59a.808.808 0 01.212-.66.827.827 0 01.648-.263c.522 0 .772.327.772.916v1.933l.772-.014zm11.422-3.474h-1.257v-1.054h-.772v1.054h-.698v.69h.713v1.6c0 .806.316 1.286 1.22 1.286.338 0 .67-.092.956-.27l-.22-.646c-.206.12-.438.188-.677.196-.367 0-.507-.233-.507-.581v-1.585h1.25l-.008-.69zm6.522-.087a1.045 1.045 0 00-.926.508v-.421h-.758v3.474h.765v-1.948c0-.574.25-.894.735-.894a1.26 1.26 0 01.478.087l.235-.727a1.656 1.656 0 00-.544-.094l.015.015zm-9.86.363a2.651 2.651 0 00-1.433-.363c-.89 0-1.47.421-1.47 1.112 0 .566.426.915 1.212 1.024l.368.051c.419.058.617.167.617.364 0 .269-.279.421-.8.421a1.887 1.887 0 01-1.17-.363l-.368.589c.446.307.98.465 1.522.45 1.015 0 1.603-.472 1.603-1.134 0-.661-.463-.93-1.228-1.039l-.367-.05c-.331-.044-.596-.11-.596-.343 0-.232.25-.407.67-.407.387.005.766.108 1.102.299l.338-.611zm20.48-.363a1.045 1.045 0 00-.926.508v-.421h-.757v3.474h.765v-1.948c0-.574.25-.894.735-.894.163-.002.326.027.478.087l.235-.727a1.655 1.655 0 00-.544-.094l.015.015zm-9.852 1.817a1.737 1.737 0 00.532 1.317 1.778 1.778 0 001.343.5c.46.023.91-.125 1.265-.415l-.368-.61c-.264.199-.587.309-.919.312a1.134 1.134 0 01-.738-.355 1.108 1.108 0 010-1.513c.192-.206.456-.333.738-.356.333.004.655.114.92.313l.367-.61a1.852 1.852 0 00-1.265-.415 1.796 1.796 0 00-1.343.5 1.754 1.754 0 00-.532 1.317v.015zm7.162 0v-1.73h-.765v.421a1.333 1.333 0 00-1.103-.508 1.85 1.85 0 00-1.3.532 1.806 1.806 0 000 2.57c.345.34.813.532 1.3.532a1.347 1.347 0 001.103-.51v.422h.765v-1.73zm-2.846 0c.012-.205.085-.401.209-.566a1.072 1.072 0 011.623-.095 1.046 1.046 0 01.206 1.135 1.071 1.071 0 01-.972.638 1.066 1.066 0 01-.779-.326 1.038 1.038 0 01-.287-.786zm-9.227-1.817a1.848 1.848 0 00-1.292.55 1.806 1.806 0 00.036 2.57c.35.335.82.52 1.307.514a2.153 2.153 0 001.46-.473l-.368-.56c-.29.23-.65.358-1.022.364a.982.982 0 01-.7-.214.96.96 0 01-.351-.636h2.61v-.291c0-1.09-.684-1.817-1.67-1.817l-.01-.007zm0 .675a.881.881 0 01.621.24.862.862 0 01.268.604H24.42a.89.89 0 01.293-.61.91.91 0 01.641-.234h.015zm19.157 1.149v-3.133h-.736v1.817a1.333 1.333 0 00-1.102-.508 1.85 1.85 0 00-1.3.532 1.806 1.806 0 000 2.57c.345.34.812.532 1.3.532a1.347 1.347 0 001.102-.51v.422h.736v-1.722zm1.275 1.232a.37.37 0 01.254.098.335.335 0 010 .487.368.368 0 01-.114.072.35.35 0 01-.14.03.37.37 0 01-.33-.211.338.338 0 01.19-.45.37.37 0 01.151-.026h-.01zm0 .614a.264.264 0 00.192-.08.267.267 0 000-.363.272.272 0 00-.192-.08.28.28 0 00-.194.08.267.267 0 000 .363.274.274 0 00.088.058.274.274 0 00.117.022h-.01zm.022-.432a.148.148 0 01.096.029.091.091 0 01.033.076.087.087 0 01-.026.065.13.13 0 01-.077.033l.107.12h-.085l-.1-.12h-.032v.12h-.07v-.32l.154-.004zm-.08.061v.087h.08c.015.005.03.005.044 0a.036.036 0 000-.032.036.036 0 000-.033.079.079 0 00-.044 0l-.08-.022zm-4.044-1.475c.012-.205.084-.401.208-.566a1.062 1.062 0 011.096-.395c.201.047.385.152.527.3a1.045 1.045 0 01.206 1.135c-.081.188-.216.35-.389.463a1.07 1.07 0 01-.582.175 1.064 1.064 0 01-.78-.326 1.043 1.043 0 01-.286-.786zm-25.819 0v-1.737h-.764v.421a1.333 1.333 0 00-1.103-.508c-.488 0-.955.191-1.3.532a1.806 1.806 0 000 2.57c.345.34.813.532 1.3.532a1.347 1.347 0 001.103-.51v.422h.764v-1.722zm-2.845 0c.012-.205.085-.401.208-.566a1.075 1.075 0 011.623-.095 1.045 1.045 0 01-.183 1.598 1.071 1.071 0 01-.582.175 1.064 1.064 0 01-.784-.323 1.041 1.041 0 01-.29-.79h.008z" fill="#000"/>
  <path d="M30.979 3.554h-11.58v20.572h11.58V3.554z" fill="#FF5F00"/>
  <path d="M20.134 13.844a12.937 12.937 0 011.327-5.72 13.09 13.09 0 013.727-4.568A13.319 13.319 0 0018.422.834a13.369 13.369 0 00-7.196 1.242 13.183 13.183 0 00-5.434 4.826 12.972 12.972 0 00-2.016 6.94c0 2.455.699 4.86 2.016 6.94a13.183 13.183 0 005.434 4.827 13.368 13.368 0 0013.962-1.48 13.09 13.09 0 01-3.726-4.567 12.937 12.937 0 01-1.328-5.718z" fill="#EB001B"/>
  <path d="M46.602 13.842c0 2.455-.698 4.86-2.016 6.94a13.183 13.183 0 01-5.435 4.827 13.368 13.368 0 01-13.963-1.483 13.113 13.113 0 003.726-4.568 12.958 12.958 0 000-11.436 13.113 13.113 0 00-3.726-4.568A13.318 13.318 0 0131.956.831c2.469-.262 4.963.168 7.196 1.24a13.183 13.183 0 015.435 4.826 12.971 12.971 0 012.017 6.941v.004zM45.338 21.946v-.422h.173v-.087h-.438v.087h.188v.422h.077zm.85 0v-.51h-.133l-.155.364-.154-.363h-.118v.509h.096v-.382l.143.33h.1l.143-.33v.385l.077-.003z" fill="#F79E1B"/>
</svg>