<svg width="75" height="30" fill="none" xmlns="http://www.w3.org/2000/svg">
  <path d="M26.9 25.822l3.395-20.307h5.427l-3.395 20.306H26.9zM52.007 6.013c-1.075-.412-2.757-.852-4.863-.852-5.362 0-9.138 2.754-9.172 6.703-.03 2.917 2.696 4.547 4.756 5.516 2.113.996 2.822 1.63 2.81 2.52-.014 1.363-1.685 1.985-3.245 1.985-2.174 0-3.326-.307-5.107-1.066l-.698-.323-.763 4.548c1.267.568 3.612 1.058 6.045 1.085 5.706 0 9.41-2.723 9.452-6.936.019-2.31-1.427-4.07-4.558-5.516-1.896-.938-3.059-1.568-3.047-2.517 0-.844.983-1.747 3.108-1.747a9.85 9.85 0 014.062.778l.488.234.732-4.412zM65.925 5.535H61.73c-1.3 0-2.273.361-2.842 1.684l-8.059 18.61h5.698s.931-2.501 1.145-3.05l6.949.008c.164.712.66 3.042.66 3.042h5.034l-4.39-20.294zm-6.69 13.086c.45-1.171 2.163-5.676 2.163-5.676-.03.055.446-1.175.72-1.937l.367 1.75 1.255 5.863h-4.505zM22.35 5.53l-5.313 13.85-.565-2.813c-.987-3.244-4.07-6.761-7.517-8.52l4.86 17.76 5.74-.009 8.542-20.267H22.35z" fill="#005098"/>
  <path d="M12.109 5.515H3.356l-.069.424c6.808 1.68 11.312 5.742 13.181 10.624l-1.9-9.333c-.331-1.287-1.28-1.668-2.46-1.715z" fill="#F7A600"/>
</svg>